<?xml version="1.0" encoding="utf-8"?>
<!-- Generator: Adobe Illustrator 19.1.0, SVG Export Plug-In . SVG Version: 6.00 Build 0)  -->
<svg version="1.1" id="Layer_1" xmlns="http://www.w3.org/2000/svg" xmlns:xlink="http://www.w3.org/1999/xlink" x="0px" y="0px"
	 viewBox="0 0 1536 2048" enable-background="new 0 0 1536 2048" xml:space="preserve">
<path fill="#98DDDE" d="M362.5,519.5l-81.1,81.1c-0.3,0.3-0.6,0.6-0.9,0.8c-14.7,13.6-38.8,5.1-42.3-14.7l-1.8-10
	c-4-21.8-9.9-43.2-16.7-64.4c-3.1-9.9-0.8-21.2,7.1-29.1l23.3-23.3c8.4-8.4,20.8-10.5,31.2-6.3c20.9,8.5,42.6,15,64.5,20.7l5.4,1.4
	c15.2,4,23.6,20.7,17.2,35.1C367,514,365.1,516.9,362.5,519.5z"/>
<path fill="#98DDDE" d="M659.3,1002.2l81.1-81.1c0.3-0.3,0.6-0.6,0.9-0.8c14.7-13.6,38.8-5.1,42.3,14.7l1.8,10
	c4,21.8,9.9,43.2,16.7,64.4c3.1,9.9,0.8,21.2-7.1,29.1l-23.3,23.3c-8.4,8.4-20.8,10.5-31.2,6.3c-20.9-8.5-42.6-15-64.5-20.7
	l-5.4-1.4c-15.2-4-23.6-20.7-17.2-35.1C654.8,1007.7,656.8,1004.8,659.3,1002.2z"/>
<path fill="#98DDDE" d="M244.2,691.4v114.7c0,0.4,0,0.8,0,1.2c-0.8,20-23.8,31-40.3,19.6l-8.3-5.8c-18.3-12.6-37.6-23.5-57.3-33.8
	c-9.2-4.8-15.5-14.4-15.5-25.6v-33c0-11.9,7.2-22.1,17.6-26.5c20.8-8.8,40.8-19.5,60.3-30.9l4.9-2.8c13.6-7.9,31.3-2,36.9,12.7
	C243.5,684.4,244.2,687.8,244.2,691.4z"/>
<path fill="#98DDDE" d="M788,830.3V715.6c0-0.4,0-0.8,0-1.2c0.8-20,23.8-31,40.3-19.6l8.3,5.8c18.3,12.6,37.6,23.5,57.3,33.8
	c9.2,4.8,15.5,14.4,15.5,25.6v33c0,11.9-7.2,22.1-17.6,26.5c-20.8,8.8-40.8,19.5-60.3,30.9l-4.9,2.8c-13.6,7.9-31.3,2-36.9-12.7
	C788.7,837.3,788,833.9,788,830.3z"/>
<path fill="#98DDDE" d="M274.7,904.1l81.1,81.1c0.3,0.3,0.6,0.6,0.8,0.9c13.6,14.7,5.1,38.8-14.7,42.3l-10,1.8
	c-21.8,4-43.2,9.9-64.4,16.7c-9.9,3.1-21.2,0.8-29.1-7.1l-23.3-23.3c-8.4-8.4-10.5-20.8-6.3-31.2c8.5-20.9,15-42.6,20.7-64.5
	l1.4-5.4c4-15.2,20.7-23.6,35.1-17.2C269.3,899.6,272.2,901.5,274.7,904.1z"/>
<path fill="#98DDDE" d="M757.5,617.7l-81.1-81.1c-0.3-0.3-0.6-0.6-0.8-0.9c-13.6-14.7-5.1-38.8,14.7-42.3l10-1.8
	c21.8-4,43.2-9.9,64.4-16.7c9.9-3.1,21.2-0.8,29.1,7.1l23.3,23.3c8.4,8.4,10.5,20.8,6.3,31.2c-8.5,20.9-15,42.6-20.7,64.5l-1.4,5.4
	c-4,15.2-20.7,23.6-35.1,17.2C762.9,622.2,760,620.2,757.5,617.7z"/>
<path fill="#98DDDE" d="M446.7,1032.8h114.7c0.4,0,0.8,0,1.2,0c20,0.8,31,23.8,19.6,40.3l-5.8,8.3c-12.6,18.3-23.5,37.6-33.8,57.3
	c-4.8,9.2-14.4,15.5-25.6,15.5h-33c-11.9,0-22.1-7.2-26.5-17.6c-8.8-20.8-19.5-40.8-30.9-60.3l-2.8-4.9c-7.9-13.6-2-31.3,12.7-36.9
	C439.6,1033.5,443.1,1032.8,446.7,1032.8z"/>
<path fill="#98DDDE" d="M585.5,488.9H470.8c-0.4,0-0.8,0-1.2,0c-20-0.8-31-23.8-19.6-40.3l5.8-8.3c12.6-18.3,23.5-37.6,33.8-57.3
	c4.8-9.2,14.4-15.5,25.6-15.5h33c11.9,0,22.1,7.2,26.5,17.6c8.8,20.8,19.5,40.8,30.9,60.3l2.8,4.9c7.9,13.6,2,31.3-12.7,36.9
	C592.6,488.3,589.1,488.9,585.5,488.9z"/>
<path fill="#98DDDE" d="M514.9,1074.7c-42.8,0-84.4-8.4-123.6-25c-37.8-16-71.8-38.9-100.9-68c-29.1-29.1-52-63.1-68-100.9
	c-16.6-39.2-25-80.7-25-123.6s8.4-84.4,25-123.6c16-37.8,38.9-71.8,68-100.9c29.1-29.1,63.1-52,100.9-68c39.2-16.6,80.7-25,123.6-25
	s84.4,8.4,123.6,25c37.8,16,71.8,38.9,100.9,68c29.1,29.1,52,63.1,68,100.9c16.6,39.2,25,80.7,25,123.6s-8.4,84.4-25,123.6
	c-16,37.8-38.9,71.8-68,100.9c-29.1,29.1-63.1,52-100.9,68C599.3,1066.3,557.7,1074.7,514.9,1074.7z M514.9,505.6
	c-138.8,0-251.7,112.9-251.7,251.7c0,138.8,112.9,251.7,251.7,251.7S766.5,896,766.5,757.2C766.5,618.5,653.6,505.6,514.9,505.6z"/>
<path fill="#98DDDE" d="M725.4,1182.6l-77.8,40.5c-0.3,0.1-0.5,0.3-0.8,0.4c-13.9,6.5-29.4-5.2-27.5-20.4l1-7.7
	c2.1-16.8,2.7-33.8,2.7-50.8c0-7.9,4.3-15.6,11.8-19.6l22.4-11.6c8.1-4.2,17.6-2.9,24.2,2.6c13.3,11,27.6,20.7,42.2,29.9l3.6,2.3
	c10.2,6.4,12.4,20.5,4.4,29.5C729.9,1179.7,727.8,1181.4,725.4,1182.6z"/>
<path fill="#98DDDE" d="M830.7,1602.7l77.8-40.5c0.3-0.1,0.5-0.3,0.8-0.4c13.9-6.5,29.4,5.2,27.5,20.4l-1,7.7
	c-2.1,16.8-2.7,33.8-2.7,50.8c0,7.9-4.3,15.6-11.8,19.6l-22.4,11.6c-8.1,4.2-17.6,2.9-24.2-2.6c-13.3-11-27.6-20.7-42.2-29.9
	l-3.6-2.3c-10.2-6.4-12.4-20.5-4.4-29.5C826.2,1605.7,828.3,1604,830.7,1602.7z"/>
<path fill="#98DDDE" d="M599.6,1280.7l-26.4,83.6c-0.1,0.3-0.2,0.6-0.3,0.9c-5.2,14.4-24.5,17.1-33.9,5l-4.7-6.1
	c-10.4-13.4-22-25.8-34-37.8c-5.6-5.6-8-14.1-5.5-22.2l7.6-24c2.7-8.7,10.4-14.5,18.9-15.3c17.2-1.6,34.2-4.9,51-8.7l4.2-1
	c11.7-2.7,23.3,5.7,24,17.7C600.7,1275.5,600.4,1278.1,599.6,1280.7z"/>
<path fill="#98DDDE" d="M964.1,1507l26.4-83.6c0.1-0.3,0.2-0.6,0.3-0.9c5.2-14.4,24.5-17.1,33.9-5l4.7,6.1
	c10.4,13.4,22,25.8,34,37.8c5.6,5.6,8,14.1,5.5,22.2l-7.6,24c-2.7,8.7-10.4,14.5-18.9,15.3c-17.2,1.6-34.2,4.9-51,8.7l-4.2,1
	c-11.7,2.7-23.3-5.7-24-17.7C963,1512.3,963.3,1509.6,964.1,1507z"/>
<path fill="#98DDDE" d="M573,1442.8l40.5,77.8c0.1,0.3,0.3,0.5,0.4,0.8c6.5,13.9-5.2,29.4-20.4,27.5l-7.7-1
	c-16.8-2.1-33.8-2.7-50.8-2.7c-7.9,0-15.6-4.3-19.6-11.8l-11.6-22.4c-4.2-8.1-2.9-17.6,2.6-24.2c11-13.3,20.7-27.6,29.9-42.2
	l2.3-3.6c6.4-10.2,20.5-12.4,29.5-4.4C570.1,1438.2,571.7,1440.3,573,1442.8z"/>
<path fill="#98DDDE" d="M990.7,1345l-40.5-77.8c-0.1-0.3-0.3-0.5-0.4-0.8c-6.5-13.9,5.2-29.4,20.4-27.5l7.7,1
	c16.8,2.1,33.8,2.7,50.8,2.7c7.9,0,15.6,4.3,19.6,11.8l11.6,22.4c4.2,8.1,2.9,17.6-2.6,24.2c-11,13.3-20.7,27.6-29.9,42.2l-2.3,3.6
	c-6.4,10.2-20.5,12.4-29.5,4.4C993.6,1349.5,992,1347.4,990.7,1345z"/>
<path fill="#98DDDE" d="M668.7,1576.1l83.6,26.4c0.3,0.1,0.6,0.2,0.9,0.3c14.4,5.2,17.1,24.5,5,33.9l-6.1,4.7
	c-13.4,10.4-25.8,22-37.8,34c-5.6,5.6-14.1,8-22.2,5.5l-24-7.6c-8.7-2.7-14.5-10.4-15.3-18.9c-1.6-17.2-4.9-34.2-8.7-51l-1-4.2
	c-2.7-11.7,5.7-23.3,17.7-24C663.4,1575,666.1,1575.3,668.7,1576.1z"/>
<path fill="#98DDDE" d="M895,1211.6l-83.6-26.4c-0.3-0.1-0.6-0.2-0.9-0.3c-14.4-5.2-17.1-24.5-5-33.9l6.1-4.7
	c13.4-10.4,25.8-22,37.8-34c5.6-5.6,14.1-8,22.2-5.5l24,7.6c8.7,2.7,14.5,10.4,15.3,18.9c1.6,17.2,4.9,34.2,8.7,51l1,4.2
	c2.7,11.7-5.7,23.3-17.7,24C900.3,1212.8,897.6,1212.4,895,1211.6z"/>
<path fill="#98DDDE" d="M661.7,1601.8c-28.5-16.2-52.9-37.5-72.6-63.3c-19.1-24.9-33-53-41.3-83.3c-8.3-30.4-10.7-61.6-7-92.7
	c3.8-32.3,14-63.1,30.2-91.5c16.2-28.5,37.5-52.9,63.3-72.6c24.9-19.1,53-33,83.3-41.3c30.4-8.3,61.6-10.7,92.7-7
	c32.3,3.8,63.1,14,91.5,30.2c28.5,16.2,52.9,37.5,72.6,63.3c19.1,24.9,33,53,41.3,83.3s10.7,61.6,7,92.7
	c-3.8,32.3-14,63.1-30.2,91.5s-37.5,52.9-63.3,72.6c-24.9,19.1-53,33-83.3,41.3c-30.4,8.3-61.6,10.7-92.7,7
	C721,1628.1,690.2,1618,661.7,1601.8z M877,1223.8c-92.2-52.5-209.8-20.2-262.3,72c-52.5,92.2-20.2,209.8,72,262.3
	s209.8,20.2,262.3-72C1001.4,1394,969.1,1276.3,877,1223.8z"/>
<path fill="#98DDDE" d="M1074.8,791.6l-58.8,46.5c-0.2,0.2-0.4,0.3-0.6,0.5c-10.6,7.7-25.5,0.3-26.4-12.7l-0.4-6.6
	c-0.9-14.5-3.2-28.8-5.9-43.1c-1.3-6.7,1.1-13.8,6.8-18.3l16.9-13.4c6.1-4.8,14.3-5.3,20.7-1.7c12.9,7.1,26.5,13,40.3,18.4l3.4,1.3
	c9.6,3.8,13.8,15.2,8.5,24.1C1078.1,788.4,1076.6,790.1,1074.8,791.6z"/>
<path fill="#98DDDE" d="M1230.7,1127.6l58.8-46.5c0.2-0.2,0.4-0.3,0.6-0.5c10.6-7.7,25.5-0.3,26.4,12.7l0.4,6.6
	c0.9,14.5,3.2,28.8,5.9,43.1c1.3,6.7-1.1,13.8-6.8,18.3l-16.9,13.4c-6.1,4.8-14.3,5.3-20.7,1.7c-12.9-7.1-26.5-13-40.3-18.4
	l-3.4-1.3c-9.6-3.8-13.8-15.2-8.5-24.1C1227.4,1130.8,1228.9,1129,1230.7,1127.6z"/>
<path fill="#98DDDE" d="M968.3,943.1l10.8,74.2c0,0.3,0.1,0.5,0.1,0.8c1.4,13-12.5,22.3-24.2,16.5l-5.9-2.9
	c-13-6.5-26.5-11.7-40.3-16.4c-6.4-2.2-11.4-7.9-12.5-15.1l-3.1-21.3c-1.1-7.7,2.6-15,8.9-18.8c12.6-7.7,24.5-16.5,36.1-25.7
	l2.9-2.3c8-6.4,20.1-4.3,25.1,4.7C967.2,938.6,967.9,940.8,968.3,943.1z"/>
<path fill="#98DDDE" d="M1337.2,976l-10.8-74.2c0-0.3-0.1-0.5-0.1-0.8c-1.4-13,12.5-22.3,24.2-16.5l5.9,2.9
	c13,6.5,26.5,11.7,40.3,16.4c6.4,2.2,11.4,7.9,12.5,15.1l3.1,21.3c1.1,7.7-2.6,15-8.9,18.8c-12.6,7.7-24.5,16.5-36.1,25.7l-2.9,2.3
	c-8,6.4-20.1,4.3-25.1-4.7C1338.3,980.5,1337.6,978.4,1337.2,976z"/>
<path fill="#98DDDE" d="M1046.2,1111.1l69.7,27.7c0.2,0.1,0.5,0.2,0.7,0.3c12,5.3,13.1,22,2.2,29.2l-5.5,3.7
	c-12.1,8-23.4,17.2-34.3,26.7c-5.1,4.5-12.5,6-19.3,3.3l-20-8c-7.2-2.9-11.7-9.7-11.9-17.1c-0.3-14.8-2-29.5-4.2-44.1l-0.6-3.6
	c-1.5-10.2,6.3-19.5,16.6-19.4C1041.8,1109.8,1044.1,1110.2,1046.2,1111.1z"/>
<path fill="#98DDDE" d="M1259.3,808l-69.7-27.7c-0.2-0.1-0.5-0.2-0.7-0.3c-12-5.3-13.1-22-2.2-29.2l5.5-3.7
	c12.1-8,23.4-17.2,34.3-26.7c5.1-4.5,12.5-6,19.3-3.3l20,8c7.2,2.9,11.7,9.7,11.9,17.1c0.3,14.8,2,29.5,4.2,44.1l0.6,3.6
	c1.5,10.2-6.3,19.5-16.6,19.4C1263.7,809.3,1261.4,808.9,1259.3,808z"/>
<path fill="#98DDDE" d="M1131.5,1163.6c-27.8-3.3-54.2-11.9-78.3-25.6c-23.3-13.3-43.6-30.7-60.3-51.8c-16.7-21.1-29-44.9-36.5-70.7
	c-7.8-26.7-10.1-54.3-6.8-82.1c3.3-27.8,11.9-54.2,25.6-78.3c13.3-23.3,30.7-43.6,51.8-60.3c21.1-16.7,44.9-29,70.7-36.5
	c26.7-7.8,54.3-10.1,82.1-6.8s54.2,11.9,78.3,25.6c23.3,13.3,43.6,30.7,60.3,51.8c16.7,21.1,29,44.9,36.5,70.7
	c7.8,26.7,10.1,54.3,6.8,82.1c-3.3,27.8-11.9,54.2-25.6,78.3c-13.3,23.3-30.7,43.6-51.8,60.3c-21.1,16.7-44.9,29-70.7,36.5
	C1186.9,1164.6,1159.3,1166.9,1131.5,1163.6z M1174.7,794.1c-90.1-10.6-172,54.2-182.5,144.2s54.2,172,144.2,182.5
	c90.1,10.6,172-54.2,182.5-144.2C1329.5,886.6,1264.8,804.7,1174.7,794.1z"/>
</svg>
