<?xml version="1.0" encoding="utf-8"?>
<!-- Generator: Adobe Illustrator 19.1.0, SVG Export Plug-In . SVG Version: 6.00 Build 0)  -->
<svg version="1.1" id="Layer_1" xmlns="http://www.w3.org/2000/svg" xmlns:xlink="http://www.w3.org/1999/xlink" x="0px" y="0px"
	 viewBox="0 0 1536 2048" enable-background="new 0 0 1536 2048" xml:space="preserve">
<g>
	<path fill="#A0C4EF" d="M843.4,1570.7H689.7c-0.5,0-1.1,0-1.6,0c-26.8-1.1-41.5-31.9-26.2-54l7.7-11.2
		c16.9-24.5,31.6-50.4,45.3-76.8c6.4-12.4,19.3-20.8,34.3-20.8h44.2c16,0,29.7,9.7,35.5,23.5c11.8,27.9,26.2,54.6,41.5,80.8l3.8,6.5
		c10.7,18.2,2.7,42-17,49.5C852.9,1569.8,848.2,1570.7,843.4,1570.7z"/>
	<path fill="#A0C4EF" d="M1152.4,1379.6l-108.7,108.7c-0.4,0.4-0.8,0.7-1.1,1.1c-19.7,18.2-52,6.8-56.7-19.6l-2.4-13.3
		c-5.3-29.3-13.3-58-22.3-86.3c-4.2-13.3-1.1-28.4,9.5-39l31.3-31.3c11.3-11.3,27.8-14.1,41.8-8.5c28.1,11.4,57.2,20.1,86.5,27.8
		l7.3,1.9c20.4,5.4,31.7,27.8,23,47C1158.5,1372.3,1155.8,1376.2,1152.4,1379.6z"/>
	<path fill="#A0C4EF" d="M1235.8,1026v153.8c0,0.5,0,1.1,0,1.6c-1.1,26.8-31.9,41.5-54,26.2l-11.2-7.7
		c-24.5-16.9-50.4-31.6-76.8-45.3c-12.4-6.4-20.8-19.3-20.8-34.3v-44.2c0-16,9.7-29.7,23.5-35.5c27.9-11.8,54.6-26.2,80.8-41.5
		l6.5-3.8c18.2-10.7,42-2.7,49.5,17C1234.9,1016.6,1235.8,1021.2,1235.8,1026z"/>
	<path fill="#A0C4EF" d="M298.7,1178.3v-153.8c0-0.5,0-1.1,0-1.6c1.1-26.8,31.9-41.5,54-26.2l11.2,7.7
		c24.5,16.9,50.4,31.6,76.8,45.3c12.4,6.4,20.8,19.3,20.8,34.3v44.2c0,16-9.7,29.7-23.5,35.5c-27.9,11.8-54.6,26.2-80.8,41.5
		l-6.5,3.8c-18.2,10.7-42,2.7-49.5-17C299.6,1187.7,298.7,1183.1,298.7,1178.3z"/>
	<path fill="#A0C4EF" d="M1044.7,717l108.7,108.7c0.4,0.4,0.7,0.8,1.1,1.1c18.2,19.7,6.8,52-19.6,56.7l-13.3,2.4
		c-29.3,5.3-58,13.3-86.3,22.3c-13.3,4.2-28.4,1.1-39-9.5L965,867.6c-11.3-11.3-14.1-27.8-8.5-41.8c11.4-28.1,20.1-57.2,27.8-86.5
		l1.9-7.3c5.4-20.4,27.8-31.7,47-23C1037.4,710.9,1041.3,713.6,1044.7,717z"/>
	<path fill="#A0C4EF" d="M489.8,1487.3l-108.7-108.7c-0.4-0.4-0.7-0.8-1.1-1.1c-18.2-19.7-6.8-52,19.6-56.7l13.3-2.4
		c29.3-5.3,58-13.3,86.3-22.3c13.3-4.2,28.4-1.1,39,9.5l31.3,31.3c11.3,11.3,14.1,27.8,8.5,41.8c-11.4,28.1-20.1,57.2-27.8,86.5
		l-1.9,7.3c-5.4,20.4-27.8,31.7-47,23C497.1,1493.4,493.2,1490.7,489.8,1487.3z"/>
</g>
<polygon fill="#A0C4EF" points="339.3,1224.1 445.4,1159.6 445.4,1052.5 339.3,986.7 "/>
<polygon fill="#A0C4EF" points="1206.3,1224.1 1089.4,1153.3 1089.4,1044.2 1207.2,983.6 "/>
<polygon fill="#A0C4EF" points="550.8,1491.7 580.2,1371 504.5,1295.3 382.9,1323.8 "/>
<polygon fill="#A0C4EF" points="1168.3,873.7 1032.1,909.4 954.9,832.2 990.2,702.1 "/>
<polygon fill="#A0C4EF" points="889.7,1534.1 827.1,1428.9 714.8,1428.6 652.4,1534.1 "/>
<polygon fill="#A0C4EF" points="1156.7,1324.3 1043.6,1291.4 960.4,1370.6 988.9,1492.1 "/>
<path fill="#A0C4EF" d="M780.1,1637c-75.4,0-152.2-15.3-222.2-44.1c-71-29.3-135.3-72.8-185.9-125.7
	c-44.7-46.8-78.8-100.4-101.5-159.4c-24.2-63.1-34.8-131.4-31.6-203c3.6-78.7,35.5-165.4,97.5-264.8
	c53.8-86.3,122.9-170.4,183.8-244.7c33-40.3,64.3-78.3,90.4-113.3c0.7-1,1.8-1.5,3-1.5c0.7,0,1.4,0.2,2.1,0.6c1.6,1.1,2.1,3.3,1.1,5
	c-16.9,28-34.8,56.6-53.8,86.9c-85.2,136-181.7,290.1-215.6,440.9c-38.9,173,12.2,311.6,156.1,423.8
	c75.6,58.9,166.2,90.1,261.9,90.1c211.9,0,445-163.3,452.2-427.1c3.1-113.5-43.4-220.8-130.7-302.2c-33.9-31.5-75.2-54.9-115.1-77.5
	c-48.5-27.5-98.7-55.8-136.5-99.3c-1.1-1.3-1.2-3.1-0.3-4.5c0.7-1,1.9-1.6,3.1-1.6c0.4,0,0.9,0.1,1.3,0.2
	c113.7,41.2,222.9,84,308.2,153.5c45.5,37,79.9,78.2,105.2,125.8c28.1,52.9,44.2,112.2,49.2,181.3c4.6,63.5-2.1,126.9-20.1,188.3
	c-18.1,61.9-46.7,118.9-84.9,169.3c-51.2,67.4-115.2,119.3-190.4,154.2C936.6,1620.5,860.4,1637,780.1,1637z"/>
<path fill="#A0C4EF" d="M613.6,484.2c-172.3,285.3-474.5,674.1-112.4,956.3c281.2,219.1,710.4,16.9,720.1-339.9
	c3.2-116.9-46.6-225.6-131.9-305c-75.5-70.2-183-97.8-251.2-176.5c226,82,439.5,173.2,460.1,457.3c9.2,126.2-27.6,254.1-104.3,355
	c-296.3,390-974.3,178.9-951.4-326.5C252.7,882.6,489.6,650.3,613.6,484.2z"/>
<path fill="#A0C4EF" d="M773.1,1295c-5,0-10.2-0.2-15.2-0.6c-65.4-5.2-117.1-36.3-153.8-92.2c-64.4-98.2-70.2-254-63.8-367.5
	c7.6-134.3,35.4-265.8,59.6-336.5c0.1-0.3,0.3-0.6,0.4-0.9l10.2-15.2c0.7-1.1,1.9-1.6,3.1-1.6c0.5,0,1.1,0.1,1.6,0.4
	c1.7,0.8,2.5,2.7,2,4.4c-22.1,74.6-43.7,171.6-14.5,260.2c30.9,93.9,117.1,129.7,202.7,158.3c53,17.7,95.8,44.9,124,78.6
	c32.9,39.4,46,87,39,141.3c-6.1,46.9-29.6,90.3-66.1,122.2C865.9,1277.5,820.1,1295,773.1,1295z"/>
<path fill="#A0C4EF" d="M613.6,484.2c-24.8,83.7-42.9,176.3-14.5,262.4c31.3,94.8,117.4,131.3,205.1,160.6
	c97.5,32.6,175.3,102.1,160.5,215.9c-13.1,100.4-105.6,175.6-206.4,167.5c-306.7-24.6-215.5-613.9-154.8-791.3L613.6,484.2z"/>
<circle fill="#A0C4EF" cx="777.6" cy="1102.4" r="192"/>
</svg>
